# xmcd
#
# Track frame offsets:
#	183
#	13153
#	28230
#	43503
#	55783
#	69755
#	83508
#	97135
#	112040
#	126010
#	140688
#	151478
#	162458
#	181138
#	191043
#	201123
#	216390
#	235673
#
# Disc length: 3309
#
# Revision: 4
# Processed by: cddbd v1.5.1PL0 Copyright (c) Steve Scherf et al.
# Submitted via: ExactAudioCopy v0.90b4
# Normalized: r3:DSETVAR1
#
DISCID=fd0ceb12
DTITLE=Various Artist - The Golden Age - Chicago Blues
DYEAR=1984
DGENRE=Blues
TTITLE0=Muddy Waters - Louisiana Blues
TTITLE1=John Lee Hooker - Ramblin' By Myself
TTITLE2=Muddy Waters - They Call Me Muddy Waters
TTITLE3=John Lee Hooker - Walkin' The Boogie
TTITLE4=Little Walter - Blues With A Feeling
TTITLE5=Elmore James - Dust My Broom
TTITLE6=Albert King - Bad Luck Blues
TTITLE7=Elmore James - Whose Muddy Shoes
TTITLE8=Howlin' Wolf - Smokestack Lightnin'
TTITLE9=J.B. Lenoir - I've Been Down For So Long
TTITLE10=Little Walter - Just You Fool
TTITLE11=J.B. Lenoir - Mama What About Your Daughter
TTITLE12=Sonny Boy Williamson - 99
TTITLE13=Buddy Guy - First Time I Met The Blues
TTITLE14=Otis Rush - I Can't Stop Baby
TTITLE15=Howlin' Wolf - Goin' Down Slow
TTITLE16=Sonny Boy Williamson - Nine Below Zero
TTITLE17=Buddy Guy - When My Left Eye Jumps
EXTD=
EXTT0=
EXTT1=
EXTT2=
EXTT3=
EXTT4=
EXTT5=
EXTT6=
EXTT7=
EXTT8=
EXTT9=
EXTT10=
EXTT11=
EXTT12=
EXTT13=
EXTT14=
EXTT15=
EXTT16=
EXTT17=
PLAYORDER=
